<svg width="1000" height="250" viewBox="0 0 1000 250" fill="none" xmlns="http://www.w3.org/2000/svg">
<rect width="1000" height="250" fill="#9AC791"/>
<path d="M47.5098 158.818V90.6364H51.8777V158.818H47.5098ZM56.9913 114.5C56.8493 112.724 56.1834 111.339 54.9938 110.345C53.8219 109.351 52.0375 108.854 49.6404 108.854C48.1135 108.854 46.8617 109.04 45.8851 109.413C44.9263 109.768 44.2161 110.256 43.7544 110.878C43.2928 111.499 43.0531 112.21 43.0353 113.009C42.9998 113.665 43.1152 114.26 43.3816 114.793C43.6657 115.308 44.1096 115.778 44.7132 116.205C45.3169 116.613 46.0893 116.986 47.0304 117.323C47.9714 117.661 49.09 117.962 50.3862 118.229L54.8606 119.188C57.8791 119.827 60.4625 120.67 62.611 121.718C64.7594 122.765 66.5172 123.999 67.8844 125.42C69.2516 126.822 70.2548 128.403 70.894 130.161C71.551 131.918 71.8883 133.836 71.9061 135.913C71.8883 139.5 70.9917 142.536 69.2161 145.022C67.4405 147.508 64.9015 149.399 61.5989 150.695C58.3141 151.991 54.3635 152.639 49.747 152.639C45.0062 152.639 40.8691 151.938 37.3358 150.535C33.8201 149.132 31.0858 146.975 29.1326 144.063C27.1973 141.134 26.2207 137.387 26.2029 132.824H40.2654C40.3542 134.493 40.7715 135.896 41.5172 137.032C42.263 138.168 43.3105 139.029 44.66 139.615C46.0272 140.201 47.6518 140.494 49.5339 140.494C51.1142 140.494 52.437 140.299 53.5023 139.908C54.5677 139.518 55.3755 138.976 55.926 138.284C56.4764 137.591 56.7605 136.801 56.7782 135.913C56.7605 135.079 56.4853 134.351 55.9526 133.729C55.4377 133.09 54.5854 132.522 53.3958 132.025C52.2061 131.51 50.5993 131.031 48.5751 130.587L43.1419 129.415C38.3123 128.367 34.5037 126.618 31.7161 124.168C28.9462 121.7 27.5701 118.335 27.5879 114.074C27.5701 110.612 28.4934 107.584 30.3578 104.992C32.2399 102.382 34.8411 100.349 38.1614 98.8928C41.4995 97.4368 45.3258 96.7088 49.6404 96.7088C54.0439 96.7088 57.8525 97.4457 61.0662 98.9194C64.28 100.393 66.7569 102.471 68.497 105.152C70.2548 107.815 71.1426 110.931 71.1603 114.5H56.9913Z" fill="white"/>
<path d="M107.395 128.989V152H92.6935V111.091H106.65V118.868H107.076C107.963 116.276 109.526 114.243 111.763 112.769C114.018 111.295 116.646 110.558 119.647 110.558C122.541 110.558 125.053 111.224 127.184 112.556C129.332 113.87 130.993 115.681 132.164 117.989C133.354 120.297 133.94 122.934 133.922 125.899V152H119.221V128.989C119.238 126.964 118.723 125.375 117.676 124.221C116.646 123.067 115.208 122.49 113.361 122.49C112.154 122.49 111.097 122.756 110.192 123.289C109.304 123.804 108.62 124.55 108.141 125.526C107.662 126.485 107.413 127.639 107.395 128.989ZM141.18 167.341V111.091H155.775V118.229H156.095C156.627 116.844 157.409 115.574 158.438 114.42C159.468 113.248 160.747 112.316 162.274 111.624C163.801 110.913 165.576 110.558 167.6 110.558C170.299 110.558 172.865 111.277 175.297 112.716C177.748 114.154 179.736 116.418 181.263 119.507C182.808 122.597 183.58 126.609 183.58 131.545C183.58 136.268 182.844 140.184 181.37 143.291C179.914 146.398 177.961 148.715 175.51 150.242C173.078 151.769 170.406 152.533 167.494 152.533C165.576 152.533 163.863 152.222 162.354 151.6C160.862 150.961 159.584 150.1 158.518 149.017C157.471 147.916 156.663 146.673 156.095 145.288H155.882V167.341H141.18ZM155.562 131.545C155.562 133.534 155.819 135.256 156.334 136.712C156.867 138.151 157.613 139.269 158.572 140.068C159.548 140.849 160.711 141.24 162.061 141.24C163.41 141.24 164.555 140.858 165.496 140.095C166.455 139.314 167.183 138.204 167.68 136.766C168.195 135.31 168.453 133.57 168.453 131.545C168.453 129.521 168.195 127.79 167.68 126.352C167.183 124.896 166.455 123.786 165.496 123.023C164.555 122.241 163.41 121.851 162.061 121.851C160.711 121.851 159.548 122.241 158.572 123.023C157.613 123.786 156.867 124.896 156.334 126.352C155.819 127.79 155.562 129.521 155.562 131.545ZM189.739 152V111.091H203.695V118.868H204.122C204.974 116.311 206.43 114.287 208.489 112.795C210.549 111.304 212.999 110.558 215.84 110.558C218.717 110.558 221.194 111.322 223.271 112.849C225.348 114.358 226.6 116.364 227.026 118.868H227.453C228.145 116.364 229.619 114.358 231.874 112.849C234.129 111.322 236.774 110.558 239.81 110.558C243.734 110.558 246.913 111.819 249.345 114.34C251.796 116.862 253.021 120.217 253.021 124.408V152H238.319V128.136C238.319 126.343 237.866 124.94 236.961 123.928C236.055 122.898 234.839 122.384 233.312 122.384C231.803 122.384 230.604 122.898 229.716 123.928C228.846 124.94 228.411 126.343 228.411 128.136V152H214.349V128.136C214.349 126.343 213.896 124.94 212.991 123.928C212.085 122.898 210.869 122.384 209.342 122.384C208.33 122.384 207.46 122.614 206.732 123.076C206.004 123.538 205.435 124.203 205.027 125.074C204.636 125.926 204.441 126.947 204.441 128.136V152H189.739ZM275.213 152V111.091H289.915V152H275.213ZM282.564 106.83C280.575 106.83 278.871 106.173 277.45 104.859C276.03 103.545 275.32 101.964 275.32 100.118C275.32 98.2713 276.03 96.6911 277.45 95.3771C278.871 94.0632 280.575 93.4062 282.564 93.4062C284.57 93.4062 286.275 94.0632 287.678 95.3771C289.098 96.6911 289.808 98.2713 289.808 100.118C289.808 101.964 289.098 103.545 287.678 104.859C286.275 106.173 284.57 106.83 282.564 106.83ZM312.107 128.989V152H297.405V111.091H311.361V118.868H311.788C312.675 116.276 314.238 114.243 316.475 112.769C318.73 111.295 321.358 110.558 324.359 110.558C327.253 110.558 329.765 111.224 331.896 112.556C334.044 113.87 335.704 115.681 336.876 117.989C338.066 120.297 338.652 122.934 338.634 125.899V152H323.932V128.989C323.95 126.964 323.435 125.375 322.388 124.221C321.358 123.067 319.92 122.49 318.073 122.49C316.866 122.49 315.809 122.756 314.904 123.289C314.016 123.804 313.332 124.55 312.853 125.526C312.373 126.485 312.125 127.639 312.107 128.989ZM345.892 152V111.091H360.593V152H345.892ZM353.243 106.83C351.254 106.83 349.549 106.173 348.129 104.859C346.709 103.545 345.998 101.964 345.998 100.118C345.998 98.2713 346.709 96.6911 348.129 95.3771C349.549 94.0632 351.254 93.4062 353.243 93.4062C355.249 93.4062 356.954 94.0632 358.356 95.3771C359.777 96.6911 360.487 98.2713 360.487 100.118C360.487 101.964 359.777 103.545 358.356 104.859C356.954 106.173 355.249 106.83 353.243 106.83ZM392.48 111.091V121.744H365.527V111.091H392.48ZM370.748 101.29H385.449V138.843C385.449 139.411 385.547 139.891 385.742 140.281C385.938 140.654 386.239 140.938 386.648 141.134C387.056 141.311 387.58 141.4 388.219 141.4C388.663 141.4 389.178 141.347 389.764 141.24C390.368 141.134 390.811 141.045 391.096 140.974L393.226 151.308C392.569 151.503 391.628 151.743 390.403 152.027C389.196 152.311 387.757 152.497 386.088 152.586C382.715 152.763 379.883 152.417 377.592 151.547C375.302 150.659 373.58 149.266 372.425 147.366C371.271 145.466 370.712 143.087 370.748 140.228V101.29ZM450.815 124.408H437.285C437.214 123.573 436.921 122.854 436.406 122.25C435.891 121.647 435.225 121.185 434.408 120.865C433.609 120.528 432.722 120.359 431.745 120.359C430.484 120.359 429.401 120.59 428.496 121.052C427.59 121.513 427.146 122.17 427.164 123.023C427.146 123.626 427.404 124.186 427.936 124.701C428.487 125.216 429.543 125.615 431.106 125.899L439.415 127.391C443.606 128.154 446.722 129.441 448.764 131.252C450.823 133.046 451.862 135.452 451.88 138.47C451.862 141.382 450.992 143.912 449.27 146.061C447.565 148.191 445.23 149.843 442.265 151.015C439.318 152.169 435.953 152.746 432.171 152.746C425.921 152.746 421.029 151.467 417.496 148.911C413.98 146.354 412.018 142.98 411.61 138.79H426.205C426.4 140.086 427.04 141.089 428.123 141.799C429.224 142.492 430.609 142.838 432.278 142.838C433.627 142.838 434.737 142.607 435.607 142.146C436.495 141.684 436.947 141.027 436.965 140.175C436.947 139.393 436.557 138.772 435.793 138.31C435.047 137.849 433.876 137.476 432.278 137.192L425.033 135.913C420.861 135.185 417.736 133.8 415.658 131.759C413.581 129.717 412.551 127.089 412.569 123.875C412.551 121.034 413.297 118.628 414.806 116.657C416.333 114.669 418.508 113.159 421.331 112.13C424.172 111.082 427.537 110.558 431.425 110.558C437.338 110.558 441.999 111.783 445.408 114.234C448.835 116.684 450.637 120.075 450.815 124.408ZM457.513 167.341V111.091H472.108V118.229H472.428C472.96 116.844 473.742 115.574 474.771 114.42C475.801 113.248 477.08 112.316 478.607 111.624C480.134 110.913 481.909 110.558 483.933 110.558C486.632 110.558 489.198 111.277 491.63 112.716C494.081 114.154 496.069 116.418 497.596 119.507C499.141 122.597 499.913 126.609 499.913 131.545C499.913 136.268 499.177 140.184 497.703 143.291C496.247 146.398 494.294 148.715 491.843 150.242C489.411 151.769 486.739 152.533 483.827 152.533C481.909 152.533 480.196 152.222 478.687 151.6C477.195 150.961 475.917 150.1 474.851 149.017C473.804 147.916 472.996 146.673 472.428 145.288H472.215V167.341H457.513ZM471.895 131.545C471.895 133.534 472.152 135.256 472.667 136.712C473.2 138.151 473.946 139.269 474.905 140.068C475.881 140.849 477.044 141.24 478.394 141.24C479.743 141.24 480.888 140.858 481.829 140.095C482.788 139.314 483.516 138.204 484.013 136.766C484.528 135.31 484.786 133.57 484.786 131.545C484.786 129.521 484.528 127.79 484.013 126.352C483.516 124.896 482.788 123.786 481.829 123.023C480.888 122.241 479.743 121.851 478.394 121.851C477.044 121.851 475.881 122.241 474.905 123.023C473.946 123.786 473.2 124.896 472.667 126.352C472.152 127.79 471.895 129.521 471.895 131.545ZM520.774 97.4545V152H506.072V97.4545H520.774ZM528.265 152V111.091H542.967V152H528.265ZM535.616 106.83C533.627 106.83 531.922 106.173 530.502 104.859C529.082 103.545 528.371 101.964 528.371 100.118C528.371 98.2713 529.082 96.6911 530.502 95.3771C531.922 94.0632 533.627 93.4062 535.616 93.4062C537.622 93.4062 539.327 94.0632 540.729 95.3771C542.15 96.6911 542.86 98.2713 542.86 100.118C542.86 101.964 542.15 103.545 540.729 104.859C539.327 106.173 537.622 106.83 535.616 106.83ZM574.854 111.091V121.744H547.9V111.091H574.854ZM553.121 101.29H567.822V138.843C567.822 139.411 567.92 139.891 568.115 140.281C568.311 140.654 568.612 140.938 569.021 141.134C569.429 141.311 569.953 141.4 570.592 141.4C571.036 141.4 571.551 141.347 572.137 141.24C572.741 141.134 573.184 141.045 573.469 140.974L575.599 151.308C574.942 151.503 574.001 151.743 572.776 152.027C571.569 152.311 570.131 152.497 568.461 152.586C565.088 152.763 562.256 152.417 559.965 151.547C557.675 150.659 555.953 149.266 554.798 147.366C553.644 145.466 553.085 143.087 553.121 140.228V101.29ZM617.807 124.408H604.277C604.206 123.573 603.913 122.854 603.398 122.25C602.883 121.647 602.217 121.185 601.4 120.865C600.601 120.528 599.714 120.359 598.737 120.359C597.476 120.359 596.393 120.59 595.488 121.052C594.582 121.513 594.138 122.17 594.156 123.023C594.138 123.626 594.396 124.186 594.929 124.701C595.479 125.216 596.535 125.615 598.098 125.899L606.408 127.391C610.598 128.154 613.714 129.441 615.756 131.252C617.816 133.046 618.854 135.452 618.872 138.47C618.854 141.382 617.984 143.912 616.262 146.061C614.557 148.191 612.223 149.843 609.257 151.015C606.31 152.169 602.945 152.746 599.163 152.746C592.913 152.746 588.022 151.467 584.488 148.911C580.973 146.354 579.011 142.98 578.602 138.79H593.197C593.393 140.086 594.032 141.089 595.115 141.799C596.216 142.492 597.601 142.838 599.27 142.838C600.619 142.838 601.729 142.607 602.599 142.146C603.487 141.684 603.94 141.027 603.957 140.175C603.94 139.393 603.549 138.772 602.785 138.31C602.04 137.849 600.868 137.476 599.27 137.192L592.025 135.913C587.853 135.185 584.728 133.8 582.65 131.759C580.573 129.717 579.543 127.089 579.561 123.875C579.543 121.034 580.289 118.628 581.798 116.657C583.325 114.669 585.5 113.159 588.323 112.13C591.164 111.082 594.529 110.558 598.418 110.558C604.33 110.558 608.991 111.783 612.4 114.234C615.827 116.684 617.629 120.075 617.807 124.408ZM644.214 152.746C639.775 152.746 635.975 151.867 632.815 150.109C629.654 148.333 627.231 145.865 625.544 142.705C623.857 139.527 623.014 135.842 623.014 131.652C623.014 127.462 623.857 123.786 625.544 120.626C627.231 117.447 629.654 114.979 632.815 113.222C635.975 111.446 639.775 110.558 644.214 110.558C648.227 110.558 651.698 111.286 654.628 112.742C657.575 114.18 659.857 116.222 661.472 118.868C663.088 121.496 663.905 124.585 663.923 128.136H650.286C650.091 125.988 649.47 124.354 648.422 123.236C647.392 122.099 646.06 121.531 644.427 121.531C643.149 121.531 642.03 121.904 641.071 122.65C640.112 123.378 639.367 124.488 638.834 125.979C638.301 127.453 638.035 129.308 638.035 131.545C638.035 133.783 638.301 135.647 638.834 137.138C639.367 138.612 640.112 139.722 641.071 140.468C642.03 141.196 643.149 141.56 644.427 141.56C645.51 141.56 646.469 141.311 647.303 140.814C648.138 140.299 648.813 139.553 649.328 138.577C649.86 137.582 650.18 136.375 650.286 134.955H663.923C663.869 138.559 663.044 141.702 661.446 144.383C659.848 147.046 657.584 149.106 654.654 150.562C651.742 152.018 648.262 152.746 644.214 152.746ZM669.988 152V111.091H684.264V118.868H684.69C685.436 115.991 686.617 113.887 688.232 112.556C689.866 111.224 691.775 110.558 693.959 110.558C694.598 110.558 695.228 110.612 695.85 110.718C696.489 110.807 697.101 110.94 697.687 111.118V123.662C696.959 123.413 696.063 123.227 694.997 123.103C693.932 122.978 693.018 122.916 692.254 122.916C690.816 122.916 689.52 123.245 688.366 123.902C687.229 124.541 686.333 125.446 685.676 126.618C685.019 127.772 684.69 129.131 684.69 130.693V152H669.988ZM702.508 152V111.091H717.21V152H702.508ZM709.859 106.83C707.87 106.83 706.166 106.173 704.745 104.859C703.325 103.545 702.615 101.964 702.615 100.118C702.615 98.2713 703.325 96.6911 704.745 95.3771C706.166 94.0632 707.87 93.4062 709.859 93.4062C711.865 93.4062 713.57 94.0632 714.972 95.3771C716.393 96.6911 717.103 98.2713 717.103 100.118C717.103 101.964 716.393 103.545 714.972 104.859C713.57 106.173 711.865 106.83 709.859 106.83ZM724.7 167.341V111.091H739.296V118.229H739.615C740.148 116.844 740.929 115.574 741.959 114.42C742.989 113.248 744.267 112.316 745.794 111.624C747.321 110.913 749.097 110.558 751.121 110.558C753.82 110.558 756.385 111.277 758.818 112.716C761.268 114.154 763.257 116.418 764.784 119.507C766.329 122.597 767.101 126.609 767.101 131.545C767.101 136.268 766.364 140.184 764.89 143.291C763.434 146.398 761.481 148.715 759.031 150.242C756.598 151.769 753.926 152.533 751.014 152.533C749.097 152.533 747.383 152.222 745.874 151.6C744.383 150.961 743.104 150.1 742.039 149.017C740.991 147.916 740.183 146.673 739.615 145.288H739.402V167.341H724.7ZM739.082 131.545C739.082 133.534 739.34 135.256 739.855 136.712C740.388 138.151 741.133 139.269 742.092 140.068C743.069 140.849 744.232 141.24 745.581 141.24C746.93 141.24 748.076 140.858 749.017 140.095C749.976 139.314 750.704 138.204 751.201 136.766C751.716 135.31 751.973 133.57 751.973 131.545C751.973 129.521 751.716 127.79 751.201 126.352C750.704 124.896 749.976 123.786 749.017 123.023C748.076 122.241 746.93 121.851 745.581 121.851C744.232 121.851 743.069 122.241 742.092 123.023C741.133 123.786 740.388 124.896 739.855 126.352C739.34 127.79 739.082 129.521 739.082 131.545ZM797.656 111.091V121.744H770.703V111.091H797.656ZM775.923 101.29H790.625V138.843C790.625 139.411 790.723 139.891 790.918 140.281C791.113 140.654 791.415 140.938 791.824 141.134C792.232 141.311 792.756 141.4 793.395 141.4C793.839 141.4 794.354 141.347 794.94 141.24C795.543 141.134 795.987 141.045 796.271 140.974L798.402 151.308C797.745 151.503 796.804 151.743 795.579 152.027C794.371 152.311 792.933 152.497 791.264 152.586C787.891 152.763 785.059 152.417 782.768 151.547C780.478 150.659 778.755 149.266 777.601 147.366C776.447 145.466 775.888 143.087 775.923 140.228V101.29ZM829.477 124.727V135.807H803.908V124.727H829.477ZM849.625 152.639C847.015 152.639 844.707 152.213 842.7 151.361C840.712 150.491 839.149 149.177 838.013 147.419C836.876 145.661 836.308 143.424 836.308 140.707C836.308 138.47 836.69 136.561 837.453 134.981C838.217 133.383 839.282 132.078 840.649 131.066C842.017 130.054 843.606 129.282 845.417 128.749C847.246 128.216 849.217 127.87 851.329 127.71C853.62 127.533 855.458 127.32 856.843 127.071C858.245 126.805 859.257 126.441 859.879 125.979C860.5 125.5 860.811 124.869 860.811 124.088V123.982C860.811 122.916 860.403 122.099 859.586 121.531C858.769 120.963 857.722 120.679 856.443 120.679C855.04 120.679 853.895 120.99 853.007 121.611C852.137 122.215 851.614 123.147 851.436 124.408H837.906C838.084 121.922 838.874 119.631 840.277 117.536C841.697 115.423 843.766 113.737 846.482 112.476C849.199 111.197 852.59 110.558 856.656 110.558C859.586 110.558 862.214 110.904 864.54 111.597C866.866 112.272 868.845 113.222 870.479 114.447C872.112 115.654 873.355 117.075 874.208 118.708C875.078 120.324 875.513 122.082 875.513 123.982V152H861.77V146.247H861.45C860.633 147.774 859.639 149.008 858.467 149.949C857.313 150.89 855.99 151.574 854.499 152C853.025 152.426 851.4 152.639 849.625 152.639ZM854.419 143.371C855.538 143.371 856.585 143.14 857.562 142.678C858.556 142.217 859.364 141.551 859.985 140.681C860.607 139.811 860.918 138.754 860.918 137.511V134.102C860.527 134.262 860.11 134.413 859.666 134.555C859.24 134.697 858.778 134.83 858.281 134.955C857.801 135.079 857.286 135.194 856.736 135.301C856.203 135.407 855.644 135.505 855.058 135.594C853.922 135.771 852.99 136.064 852.262 136.473C851.551 136.863 851.019 137.352 850.664 137.938C850.326 138.506 850.158 139.145 850.158 139.855C850.158 140.991 850.557 141.862 851.356 142.465C852.155 143.069 853.176 143.371 854.419 143.371ZM882.537 167.341V111.091H897.132V118.229H897.452C897.985 116.844 898.766 115.574 899.796 114.42C900.826 113.248 902.104 112.316 903.631 111.624C905.158 110.913 906.934 110.558 908.958 110.558C911.657 110.558 914.222 111.277 916.655 112.716C919.105 114.154 921.094 116.418 922.621 119.507C924.165 122.597 924.938 126.609 924.938 131.545C924.938 136.268 924.201 140.184 922.727 143.291C921.271 146.398 919.318 148.715 916.868 150.242C914.435 151.769 911.763 152.533 908.851 152.533C906.934 152.533 905.22 152.222 903.711 151.6C902.219 150.961 900.941 150.1 899.876 149.017C898.828 147.916 898.02 146.673 897.452 145.288H897.239V167.341H882.537ZM896.919 131.545C896.919 133.534 897.177 135.256 897.692 136.712C898.224 138.151 898.97 139.269 899.929 140.068C900.906 140.849 902.069 141.24 903.418 141.24C904.767 141.24 905.913 140.858 906.854 140.095C907.813 139.314 908.54 138.204 909.038 136.766C909.553 135.31 909.81 133.57 909.81 131.545C909.81 129.521 909.553 127.79 909.038 126.352C908.54 124.896 907.813 123.786 906.854 123.023C905.913 122.241 904.767 121.851 903.418 121.851C902.069 121.851 900.906 122.241 899.929 123.023C898.97 123.786 898.224 124.896 897.692 126.352C897.177 127.79 896.919 129.521 896.919 131.545ZM931.097 167.341V111.091H945.692V118.229H946.012C946.544 116.844 947.326 115.574 948.355 114.42C949.385 113.248 950.664 112.316 952.191 111.624C953.718 110.913 955.493 110.558 957.517 110.558C960.216 110.558 962.782 111.277 965.214 112.716C967.665 114.154 969.653 116.418 971.18 119.507C972.725 122.597 973.497 126.609 973.497 131.545C973.497 136.268 972.761 140.184 971.287 143.291C969.831 146.398 967.878 148.715 965.427 150.242C962.995 151.769 960.323 152.533 957.411 152.533C955.493 152.533 953.78 152.222 952.271 151.6C950.779 150.961 949.501 150.1 948.435 149.017C947.388 147.916 946.58 146.673 946.012 145.288H945.799V167.341H931.097ZM945.479 131.545C945.479 133.534 945.736 135.256 946.251 136.712C946.784 138.151 947.53 139.269 948.489 140.068C949.465 140.849 950.628 141.24 951.978 141.24C953.327 141.24 954.472 140.858 955.413 140.095C956.372 139.314 957.1 138.204 957.597 136.766C958.112 135.31 958.37 133.57 958.37 131.545C958.37 129.521 958.112 127.79 957.597 126.352C957.1 124.896 956.372 123.786 955.413 123.023C954.472 122.241 953.327 121.851 951.978 121.851C950.628 121.851 949.465 122.241 948.489 123.023C947.53 123.786 946.784 124.896 946.251 126.352C945.736 127.79 945.479 129.521 945.479 131.545Z" fill="white" fill-opacity="0.5"/>
</svg>
