<svg width="1000" height="250" viewBox="0 0 1000 250" fill="none" xmlns="http://www.w3.org/2000/svg">
<rect width="1000" height="250" fill="#5864F0"/>
<path d="M305.469 94.8977L287.891 160.203H275.426L293.004 94.8977H305.469Z" fill="white"/>
<path d="M329.346 152.746C324.907 152.746 321.107 151.867 317.947 150.109C314.786 148.333 312.362 145.865 310.676 142.705C308.989 139.527 308.145 135.842 308.145 131.652C308.145 127.462 308.989 123.786 310.676 120.626C312.362 117.447 314.786 114.979 317.947 113.222C321.107 111.446 324.907 110.558 329.346 110.558C333.358 110.558 336.83 111.286 339.759 112.742C342.707 114.18 344.988 116.222 346.604 118.868C348.22 121.496 349.037 124.585 349.055 128.136H335.418C335.223 125.988 334.601 124.354 333.554 123.236C332.524 122.099 331.192 121.531 329.559 121.531C328.28 121.531 327.162 121.904 326.203 122.65C325.244 123.378 324.498 124.488 323.966 125.979C323.433 127.453 323.167 129.308 323.167 131.545C323.167 133.783 323.433 135.647 323.966 137.138C324.498 138.612 325.244 139.722 326.203 140.468C327.162 141.196 328.28 141.56 329.559 141.56C330.642 141.56 331.601 141.311 332.435 140.814C333.27 140.299 333.944 139.553 334.459 138.577C334.992 137.582 335.312 136.375 335.418 134.955H349.055C349.001 138.559 348.176 141.702 346.578 144.383C344.98 147.046 342.716 149.106 339.786 150.562C336.874 152.018 333.394 152.746 329.346 152.746ZM374.829 152.746C370.39 152.746 366.59 151.867 363.43 150.109C360.269 148.333 357.846 145.865 356.159 142.705C354.472 139.527 353.629 135.842 353.629 131.652C353.629 127.462 354.472 123.786 356.159 120.626C357.846 117.447 360.269 114.979 363.43 113.222C366.59 111.446 370.39 110.558 374.829 110.558C379.268 110.558 383.068 111.446 386.228 113.222C389.389 114.979 391.812 117.447 393.499 120.626C395.186 123.786 396.029 127.462 396.029 131.652C396.029 135.842 395.186 139.527 393.499 142.705C391.812 145.865 389.389 148.333 386.228 150.109C383.068 151.867 379.268 152.746 374.829 152.746ZM374.936 141.879C376.179 141.879 377.253 141.462 378.158 140.627C379.064 139.793 379.765 138.603 380.262 137.059C380.759 135.514 381.008 133.676 381.008 131.545C381.008 129.397 380.759 127.559 380.262 126.032C379.765 124.488 379.064 123.298 378.158 122.463C377.253 121.629 376.179 121.212 374.936 121.212C373.622 121.212 372.494 121.629 371.553 122.463C370.612 123.298 369.893 124.488 369.396 126.032C368.899 127.559 368.65 129.397 368.65 131.545C368.65 133.676 368.899 135.514 369.396 137.059C369.893 138.603 370.612 139.793 371.553 140.627C372.494 141.462 373.622 141.879 374.936 141.879ZM401.995 152V111.091H415.951V118.868H416.377C417.23 116.311 418.686 114.287 420.745 112.795C422.805 111.304 425.255 110.558 428.096 110.558C430.973 110.558 433.449 111.322 435.527 112.849C437.604 114.358 438.856 116.364 439.282 118.868H439.708C440.401 116.364 441.875 114.358 444.13 112.849C446.384 111.322 449.03 110.558 452.066 110.558C455.99 110.558 459.169 111.819 461.601 114.34C464.051 116.862 465.277 120.217 465.277 124.408V152H450.575V128.136C450.575 126.343 450.122 124.94 449.217 123.928C448.311 122.898 447.095 122.384 445.568 122.384C444.059 122.384 442.86 122.898 441.972 123.928C441.102 124.94 440.667 126.343 440.667 128.136V152H426.605V128.136C426.605 126.343 426.152 124.94 425.246 123.928C424.341 122.898 423.125 122.384 421.598 122.384C420.585 122.384 419.715 122.614 418.987 123.076C418.259 123.538 417.691 124.203 417.283 125.074C416.892 125.926 416.697 126.947 416.697 128.136V152H401.995ZM472.528 152V111.091H486.483V118.868H486.91C487.762 116.311 489.218 114.287 491.278 112.795C493.337 111.304 495.787 110.558 498.628 110.558C501.505 110.558 503.982 111.322 506.059 112.849C508.137 114.358 509.388 116.364 509.814 118.868H510.241C510.933 116.364 512.407 114.358 514.662 112.849C516.917 111.322 519.562 110.558 522.599 110.558C526.523 110.558 529.701 111.819 532.133 114.34C534.584 116.862 535.809 120.217 535.809 124.408V152H521.107V128.136C521.107 126.343 520.654 124.94 519.749 123.928C518.843 122.898 517.627 122.384 516.1 122.384C514.591 122.384 513.392 122.898 512.504 123.928C511.634 124.94 511.199 126.343 511.199 128.136V152H497.137V128.136C497.137 126.343 496.684 124.94 495.779 123.928C494.873 122.898 493.657 122.384 492.13 122.384C491.118 122.384 490.248 122.614 489.52 123.076C488.792 123.538 488.224 124.203 487.815 125.074C487.425 125.926 487.229 126.947 487.229 128.136V152H472.528ZM554.459 152.639C551.849 152.639 549.541 152.213 547.534 151.361C545.546 150.491 543.983 149.177 542.847 147.419C541.71 145.661 541.142 143.424 541.142 140.707C541.142 138.47 541.524 136.561 542.287 134.981C543.051 133.383 544.116 132.078 545.483 131.066C546.851 130.054 548.44 129.282 550.251 128.749C552.08 128.216 554.051 127.87 556.163 127.71C558.454 127.533 560.292 127.32 561.677 127.071C563.079 126.805 564.091 126.441 564.713 125.979C565.334 125.5 565.645 124.869 565.645 124.088V123.982C565.645 122.916 565.237 122.099 564.42 121.531C563.603 120.963 562.555 120.679 561.277 120.679C559.874 120.679 558.729 120.99 557.841 121.611C556.971 122.215 556.448 123.147 556.27 124.408H542.74C542.918 121.922 543.708 119.631 545.111 117.536C546.531 115.423 548.6 113.737 551.316 112.476C554.033 111.197 557.424 110.558 561.49 110.558C564.42 110.558 567.048 110.904 569.374 111.597C571.7 112.272 573.679 113.222 575.313 114.447C576.946 115.654 578.189 117.075 579.042 118.708C579.912 120.324 580.347 122.082 580.347 123.982V152H566.604V146.247H566.284C565.467 147.774 564.473 149.008 563.301 149.949C562.147 150.89 560.824 151.574 559.333 152C557.859 152.426 556.234 152.639 554.459 152.639ZM559.253 143.371C560.372 143.371 561.419 143.14 562.396 142.678C563.39 142.217 564.198 141.551 564.819 140.681C565.441 139.811 565.752 138.754 565.752 137.511V134.102C565.361 134.262 564.944 134.413 564.5 134.555C564.074 134.697 563.612 134.83 563.115 134.955C562.635 135.079 562.12 135.194 561.57 135.301C561.037 135.407 560.478 135.505 559.892 135.594C558.756 135.771 557.824 136.064 557.096 136.473C556.385 136.863 555.853 137.352 555.498 137.938C555.16 138.506 554.992 139.145 554.992 139.855C554.992 140.991 555.391 141.862 556.19 142.465C556.989 143.069 558.01 143.371 559.253 143.371ZM602.073 128.989V152H587.371V111.091H601.327V118.868H601.753C602.641 116.276 604.204 114.243 606.441 112.769C608.696 111.295 611.324 110.558 614.324 110.558C617.219 110.558 619.731 111.224 621.862 112.556C624.01 113.87 625.67 115.681 626.842 117.989C628.032 120.297 628.618 122.934 628.6 125.899V152H613.898V128.989C613.916 126.964 613.401 125.375 612.354 124.221C611.324 123.067 609.885 122.49 608.039 122.49C606.831 122.49 605.775 122.756 604.869 123.289C603.982 123.804 603.298 124.55 602.819 125.526C602.339 126.485 602.091 127.639 602.073 128.989ZM650.666 152.533C647.754 152.533 645.073 151.769 642.623 150.242C640.19 148.715 638.237 146.398 636.763 143.291C635.307 140.184 634.579 136.268 634.579 131.545C634.579 126.609 635.343 122.597 636.87 119.507C638.414 116.418 640.403 114.154 642.836 112.716C645.286 111.277 647.86 110.558 650.559 110.558C652.583 110.558 654.359 110.913 655.886 111.624C657.413 112.316 658.691 113.248 659.721 114.42C660.751 115.574 661.532 116.844 662.065 118.229H662.278V97.4545H676.98V152H662.385V145.288H662.065C661.497 146.673 660.68 147.916 659.615 149.017C658.567 150.1 657.289 150.961 655.779 151.6C654.288 152.222 652.583 152.533 650.666 152.533ZM656.099 141.24C657.449 141.24 658.603 140.849 659.561 140.068C660.538 139.269 661.284 138.151 661.799 136.712C662.331 135.256 662.598 133.534 662.598 131.545C662.598 129.521 662.331 127.79 661.799 126.352C661.284 124.896 660.538 123.786 659.561 123.023C658.603 122.241 657.449 121.851 656.099 121.851C654.75 121.851 653.596 122.241 652.637 123.023C651.696 123.786 650.968 124.896 650.453 126.352C649.956 127.79 649.707 129.521 649.707 131.545C649.707 133.57 649.956 135.31 650.453 136.766C650.968 138.204 651.696 139.314 652.637 140.095C653.596 140.858 654.75 141.24 656.099 141.24ZM721.591 124.408H708.061C707.99 123.573 707.697 122.854 707.182 122.25C706.667 121.647 706.001 121.185 705.185 120.865C704.386 120.528 703.498 120.359 702.521 120.359C701.261 120.359 700.178 120.59 699.272 121.052C698.366 121.513 697.923 122.17 697.94 123.023C697.923 123.626 698.18 124.186 698.713 124.701C699.263 125.216 700.32 125.615 701.882 125.899L710.192 127.391C714.382 128.154 717.498 129.441 719.54 131.252C721.6 133.046 722.638 135.452 722.656 138.47C722.638 141.382 721.768 143.912 720.046 146.061C718.342 148.191 716.007 149.843 713.042 151.015C710.094 152.169 706.729 152.746 702.947 152.746C696.697 152.746 691.806 151.467 688.272 148.911C684.757 146.354 682.795 142.98 682.386 138.79H696.982C697.177 140.086 697.816 141.089 698.899 141.799C700 142.492 701.385 142.838 703.054 142.838C704.403 142.838 705.513 142.607 706.383 142.146C707.271 141.684 707.724 141.027 707.741 140.175C707.724 139.393 707.333 138.772 706.57 138.31C705.824 137.849 704.652 137.476 703.054 137.192L695.81 135.913C691.637 135.185 688.512 133.8 686.435 131.759C684.357 129.717 683.327 127.089 683.345 123.875C683.327 121.034 684.073 118.628 685.582 116.657C687.109 114.669 689.284 113.159 692.108 112.13C694.949 111.082 698.313 110.558 702.202 110.558C708.114 110.558 712.775 111.783 716.184 114.234C719.611 116.684 721.413 120.075 721.591 124.408Z" fill="white" fill-opacity="0.5"/>
</svg>
