<svg width="1000" height="250" viewBox="0 0 1000 250" fill="none" xmlns="http://www.w3.org/2000/svg">
<rect width="1000" height="250" fill="#9AC791"/>
<path d="M495 27.8867C498.094 26.1004 501.906 26.1004 505 27.8868L581.603 72.1133C584.697 73.8996 586.603 77.2008 586.603 80.7735V169.227C586.603 172.799 584.697 176.1 581.603 177.887L505 222.113C501.906 223.9 498.094 223.9 495 222.113L418.397 177.887C415.303 176.1 413.397 172.799 413.397 169.227V80.7735C413.397 77.2008 415.303 73.8996 418.397 72.1132L495 27.8867Z" fill="#181C1F"/>
<path d="M464 116.5C471.6 117.5 477 119.433 480.2 122.3C483.4 125.1 485 129.167 485 134.5C485 139.767 483.1 143.833 479.3 146.7C475.5 149.567 469.9 151 462.5 151C457.033 151 451.533 150.467 446 149.4C444.4 149.067 443.067 148.233 442 146.9C441 145.567 440.5 144.033 440.5 142.3V139.7C440.5 138.3 441.067 137.2 442.2 136.4C443.333 135.6 444.567 135.367 445.9 135.7C450.9 136.9 455.6 137.5 460 137.5C463.667 137.5 465.5 136.433 465.5 134.3C465.5 133.3 465.2 132.567 464.6 132.1C464 131.633 462.8 131.267 461 131C453.6 129.8 448.233 127.733 444.9 124.8C441.633 121.867 440 117.933 440 113C440 107.933 441.933 104 445.8 101.2C449.733 98.4 455.633 97 463.5 97C468.7 97 473.5 97.3333 477.9 98C479.567 98.2667 480.9 99.0333 481.9 100.3C482.967 101.567 483.5 103.033 483.5 104.7V106.8C483.5 108.2 482.9 109.367 481.7 110.3C480.567 111.167 479.3 111.467 477.9 111.2C473.833 110.4 469.667 110 465.4 110C463.2 110 461.667 110.233 460.8 110.7C459.933 111.167 459.5 111.933 459.5 113C459.5 115 461 116.167 464 116.5Z" fill="#9AC791"/>
<path d="M488.73 151.588L489.211 150.167L488.73 151.588C495.114 153.752 502.249 150.425 504.695 144.143L506.114 140.499C507.012 138.193 505.828 135.654 503.484 134.859C501.19 134.082 498.642 135.27 497.763 137.527L496.344 141.171C495.656 142.939 493.618 143.89 491.821 143.281C490.074 142.688 489.212 140.84 489.881 139.121L493.142 130.746C493.566 131.935 494.514 132.924 495.823 133.368L495.824 133.368C502.208 135.532 509.343 132.205 511.789 125.923C511.789 125.923 511.789 125.923 511.789 125.923L516.755 113.169L515.357 112.625L516.755 113.169C519.22 106.838 515.99 99.9114 509.556 97.7303L509.074 99.1508L509.556 97.7303C503.171 95.5658 496.036 98.8928 493.59 105.175L493.59 105.175L492.171 108.819C492.171 108.819 492.171 108.819 492.171 108.819C491.274 111.125 492.458 113.664 494.801 114.459C497.095 115.236 499.643 114.048 500.522 111.791L500.522 111.791L501.941 108.147L500.543 107.603L501.941 108.147C502.629 106.379 504.668 105.428 506.464 106.037L506.946 104.617L506.464 106.037C508.212 106.63 509.073 108.478 508.404 110.197L505.143 118.572C504.719 117.383 503.771 116.394 502.462 115.95C496.077 113.786 488.942 117.113 486.496 123.395L481.531 136.149L482.918 136.689L481.531 136.149C479.066 142.48 482.296 149.406 488.73 151.588ZM498.915 125.06C497.781 124.676 496.585 124.772 495.559 125.24C496.506 124.231 498.008 123.796 499.37 124.258C500.504 124.642 501.7 124.546 502.726 124.078C501.78 125.087 500.278 125.522 498.915 125.06Z" fill="#758CA3" stroke="#181C1F" stroke-width="3"/>
<path d="M537.481 115.013L537.466 115.011L537.451 115.009C536.079 114.857 535.27 114.532 534.831 114.191C534.468 113.909 534.285 113.565 534.285 113C534.285 112.671 534.351 112.478 534.416 112.363C534.478 112.254 534.582 112.136 534.797 112.021C535.304 111.748 536.498 111.5 538.685 111.5C542.858 111.5 546.927 111.891 550.896 112.672L550.905 112.674C552.725 113.02 554.425 112.617 555.897 111.492L555.897 111.492L555.906 111.484C557.436 110.295 558.285 108.707 558.285 106.8V104.7C558.285 102.69 557.634 100.887 556.348 99.3519C555.105 97.7865 553.434 96.8407 551.422 96.5188L551.422 96.5188L551.41 96.5169C546.925 95.8373 542.048 95.5 536.785 95.5C528.786 95.5 522.518 96.9154 518.216 99.978L518.215 99.978L518.206 99.9851C513.922 103.087 511.785 107.487 511.785 113C511.785 118.301 513.559 122.661 517.183 125.916L517.189 125.921L517.194 125.926C520.84 129.134 526.537 131.263 534.045 132.481L534.055 132.482L534.066 132.484C534.921 132.611 535.593 132.755 536.097 132.91C536.621 133.07 536.872 133.212 536.964 133.284C537.09 133.382 537.285 133.605 537.285 134.3C537.285 134.836 537.108 135.141 536.656 135.403C536.08 135.739 535.022 136 533.285 136C529.023 136 524.444 135.419 519.542 134.243C517.783 133.805 516.105 134.127 514.62 135.175C513.085 136.259 512.285 137.818 512.285 139.7V142.3C512.285 144.344 512.882 146.196 514.085 147.8L514.099 147.819L514.114 147.837C515.388 149.43 517.022 150.461 518.979 150.868L518.99 150.871L519.001 150.873C524.625 151.957 530.221 152.5 535.785 152.5C543.342 152.5 549.32 151.043 553.489 147.897C557.708 144.714 559.785 140.18 559.785 134.5C559.785 128.856 558.081 124.331 554.48 121.177C550.938 118.008 545.171 116.025 537.481 115.013Z" fill="#9AC791" stroke="#181C1F" stroke-width="3"/>
</svg>
